<svg xmlns="http://www.w3.org/2000/svg" version="1.1" xmlns:xlink="http://www.w3.org/1999/xlink" xmlns:svgjs="http://svgjs.dev/svgjs" viewBox="0 0 1422 800" opacity="0.59"><defs><linearGradient x1="50%" y1="0%" x2="50%" y2="100%" id="ccchaos-grad"><stop stop-color="hsl(206, 75%, 49%)" stop-opacity="1" offset="0%"></stop><stop stop-color="hsl(331, 90%, 56%)" stop-opacity="1" offset="100%"></stop></linearGradient></defs><g stroke-width="2" stroke="url(#ccchaos-grad)" fill="none" stroke-linecap="round"><path d="M726.14 203.36Q735.15 207.91 743.55 211.99 758.75 218.98 773.12 225.4 787.61 232.04 803.14 239.54 811.89 244.06 821.43 249.16 831.85 254.93 843.21 261.38 855.57 268.56 868.91 276.46 876.28 289.16 885.96 301.86 896.63 314.56 906.79 327.26 915.03 339.97 920.21 352.67 921.59 365.37 919 378.07 912.79 390.78 903.82 403.48 893.34 416.18 882.82 428.89 873.71 441.59 867.29 454.29 864.45 466.99 865.57 479.7 856.7 483.89 848.62 489.01 841.16 495.14 834.18 502.29 827.49 510.48 820.91 519.65 814.27 529.74 807.39 540.64 800.13 552.19 792.35 564.25 783.94 576.62 774.83 589.11 764.96 601.5 754.31 613.6 742.9 625.2 730.76 636.12 719.07 632.62 706.7 628.07 693.73 622.42 680.25 615.65 666.36 607.79 652.19 598.9 637.85 589.06 623.47 578.43 609.16 567.13 595.03 555.36 581.18 543.29 567.69 531.13 554.61 519.06 541.98 507.29 529.82 495.97 518.12 485.28 517.67 472.48 518.8 459.68 521.34 446.88 524.95 434.09 529.12 421.29 533.28 408.49 536.83 395.69 539.29 382.9 540.32 370.1 539.77 357.3 537.72 344.5 534.45 331.71 530.43 318.91 526.2 306.11 525.85 285.25 539.54 274.15 550.14 271.31 561.18 268.51 572.74 265.62 584.82 262.52 597.45 259.09 610.6 255.23 624.25 250.86 638.32 245.91 652.75 240.35 667.42 234.14 682.23 227.3 697.04 219.86 718.93 207.61 726.14 203.36" stroke-dasharray="5 10" transform="rotate(0, 711, 400)" opacity="0.67"></path><path d="M722.75 211.68Q738.25 219.74 752.69 226.71 766.56 232.71 780.91 238.77 788.73 242.11 797.11 245.78 806.18 249.89 816.03 254.52 826.71 259.74 838.29 265.6 850.76 272.12 864.12 279.32 871.87 291.51 881.44 303.7 891.6 315.89 901.04 328.08 908.54 340.27 913.13 352.46 914.23 364.65 911.7 376.84 905.85 389.03 897.44 401.22 887.57 413.41 877.48 425.6 868.5 437.8 861.77 449.99 858.15 462.18 858.13 474.37 849.03 478.94 840.71 484.4 833.06 490.8 825.93 498.15 819.19 506.43 812.68 515.59 806.24 525.54 799.72 536.2 792.97 547.42 785.87 559.05 778.29 570.93 770.15 582.88 761.38 594.72 751.93 606.27 741.78 617.35 730.94 627.8 718.9 624.42 706.29 620.09 693.21 614.75 679.75 608.38 666.01 601.01 652.12 592.68 638.17 583.47 624.29 573.48 610.57 562.85 597.09 551.72 583.94 540.26 571.18 528.64 558.83 517.02 546.94 505.58 535.49 494.49 524.48 483.88 524.49 471.53 525.98 459.18 528.76 446.83 532.47 434.49 536.63 422.14 540.71 409.79 544.18 397.44 546.59 385.1 547.64 372.75 547.19 360.4 545.29 348.06 542.2 335.71 538.3 323.36 534.11 311.01 533.2 291.01 545.81 280.61 555.69 277.96 565.98 275.3 576.72 272.5 587.95 269.45 599.69 266.06 611.96 262.24 624.72 257.92 637.96 253.04 651.6 247.58 665.57 241.51 679.78 234.86 694.13 227.63 715.62 215.78 722.75 211.68" stroke-dasharray="3 4" transform="rotate(4.04, 711, 400)" opacity="0.12"></path><path d="M718.73 220.01Q732.96 227.71 746.59 234.36 760.37 240.04 774.96 245.71 783.03 248.78 791.7 252.13 801.06 255.85 811.17 260.04 822.07 264.74 833.78 270.02 846.29 275.9 859.56 282.42 867.56 294.11 876.9 305.8 886.5 317.48 895.21 329.17 901.99 340.86 906.04 352.54 906.87 364.23 904.39 375.92 898.9 387.6 891.04 399.29 881.75 410.98 872.13 422.66 863.33 434.35 856.39 446.03 852.13 457.72 851.07 469.41 841.77 474.33 833.24 480.09 825.37 486.72 818.08 494.21 811.23 502.52 804.7 511.62 798.36 521.4 792.06 531.79 785.68 542.64 779.1 553.84 772.19 565.22 764.87 576.64 757.04 587.93 748.66 598.93 739.67 609.49 730.05 619.47 717.78 616.22 705.07 612.1 692.01 607.06 678.71 601.08 665.26 594.18 651.76 586.39 638.32 577.78 625.03 568.44 611.97 558.47 599.2 547.99 586.79 537.15 574.78 526.09 563.2 514.97 552.04 503.93 541.31 493.12 530.99 482.67 531.45 470.78 533.27 458.88 536.26 446.98 540.04 435.09 544.17 423.19 548.16 411.29 551.54 399.4 553.9 387.5 554.96 375.6 554.6 363.7 552.86 351.81 549.95 339.91 546.21 328.01 542.09 316.11 540.72 296.94 552.3 287.15 561.51 284.67 571.06 282.11 581 279.38 591.39 276.38 602.26 273.02 613.62 269.23 625.47 264.96 637.81 260.15 650.58 254.8 663.75 248.88 677.23 242.41 690.96 235.41 711.78 223.96 718.73 220.01" stroke-dasharray="5 1" transform="rotate(8.08, 711, 400)" opacity="0.96"></path><path d="M714.31 228.33Q727.63 235.67 740.79 242.01 754.68 247.4 769.64 252.7 777.97 255.52 786.91 258.57 796.52 261.94 806.84 265.7 817.88 269.92 829.64 274.65 842.1 279.93 855.21 285.79 863.29 296.98 872.32 308.17 881.31 319.36 889.29 330.55 895.37 341.74 898.91 352.93 899.5 364.11 897.09 375.3 891.94 386.49 884.61 397.68 875.91 408.87 866.77 420.06 858.21 431.25 851.15 442.44 846.37 453.63 844.39 464.81 834.94 470.05 826.21 476.07 818.15 482.87 810.67 490.44 803.67 498.75 797.06 507.73 790.73 517.31 784.55 527.39 778.41 537.87 772.19 548.61 765.8 559.49 759.13 570.37 752.09 581.11 744.62 591.58 736.66 601.63 728.16 611.15 715.8 608.02 703.14 604.11 690.25 599.36 677.25 593.76 664.21 587.31 651.23 580.05 638.39 572.02 625.77 563.3 613.43 553.98 601.42 544.16 589.79 533.95 578.55 523.48 567.73 512.88 557.32 502.29 547.3 491.83 537.65 481.63 538.54 470.18 540.67 458.74 543.83 447.29 547.65 435.85 551.73 424.4 555.62 412.95 558.9 401.51 561.2 390.06 562.27 378.61 562.01 367.17 560.43 355.72 557.71 344.27 554.15 332.83 550.13 321.38 548.39 303.01 559.03 293.76 567.59 291.41 576.43 288.93 585.61 286.25 595.19 283.28 605.19 279.94 615.65 276.19 626.58 271.96 637.98 267.24 649.83 261.99 662.11 256.22 674.76 249.94 687.73 243.17 707.62 232.14 714.31 228.33" stroke-dasharray="10 10" transform="rotate(12.12, 711, 400)" opacity="0.19"></path><path d="M709.71 236.64Q722.48 243.63 735.44 249.68 749.6 254.78 764.99 259.73 773.58 262.32 782.75 265.1 792.56 268.14 803.01 271.52 814.11 275.28 825.84 279.5 838.16 284.2 851.03 289.43 859.05 300.13 867.68 310.82 876.03 321.52 883.28 332.22 888.7 342.92 891.75 353.62 892.13 364.31 889.79 375.01 884.97 385.71 878.16 396.41 870.03 407.11 861.39 417.8 853.12 428.5 846.03 439.2 840.84 449.9 838.07 460.6 828.51 466.11 819.64 472.33 811.4 479.25 803.73 486.86 796.58 495.11 789.85 503.94 783.46 513.27 777.3 523.02 771.29 533.09 765.31 543.37 759.28 553.75 753.1 564.09 746.69 574.29 739.97 584.22 732.88 593.77 725.36 602.83 713.08 599.83 700.62 596.11 688.06 591.65 675.49 586.41 662.99 580.4 650.63 573.65 638.48 566.19 626.6 558.08 615.03 549.39 603.81 540.22 592.97 530.65 582.52 520.79 572.47 510.75 562.79 500.64 553.47 490.59 544.48 480.7 545.77 469.71 548.18 458.71 551.47 447.72 555.31 436.72 559.32 425.73 563.1 414.74 566.26 403.74 568.5 392.75 569.59 381.75 569.41 370.76 567.99 359.77 565.48 348.77 562.11 337.78 558.23 326.79 556.21 309.2 565.98 300.43 582.25 295.63 599.36 290.14 608.52 286.83 618.1 283.1 628.11 278.93 638.56 274.29 649.46 269.16 660.79 263.55 672.53 257.46 684.63 250.93 703.37 240.31 709.71 236.64" stroke-dasharray="11 3" transform="rotate(16.16, 711, 400)" opacity="0.57"></path><path d="M705.17 244.96Q717.69 251.6 730.69 257.36 745.22 262.18 761.05 266.82 769.85 269.2 779.21 271.72 789.14 274.46 799.64 277.48 810.71 280.82 822.32 284.56 834.42 288.72 846.96 293.35 854.81 303.57 862.95 313.78 870.65 323.99 877.18 334.2 881.97 344.41 884.57 354.63 884.75 364.84 882.49 375.05 878 385.26 871.68 395.48 864.11 405.69 855.99 415.9 848.05 426.12 841.01 436.33 835.53 446.54 832.09 456.75 822.49 462.49 813.52 468.86 805.13 475.85 797.31 483.44 789.99 491.58 783.12 500.21 776.62 509.27 770.43 518.66 764.44 528.31 758.6 538.12 752.8 547.98 746.96 557.79 741.02 567.45 734.88 576.85 728.49 585.9 721.79 594.51 709.76 591.64 697.67 588.12 685.59 583.92 673.58 579.03 661.73 573.45 650.08 567.19 638.69 560.28 627.6 552.76 616.84 544.7 606.44 536.16 596.4 527.23 586.73 517.99 577.43 508.53 568.47 498.96 559.84 489.36 551.49 479.85 553.15 469.31 555.79 458.77 559.19 448.23 563.02 437.69 566.94 427.15 570.59 416.61 573.63 406.07 575.8 395.54 576.89 385 576.81 374.46 575.55 363.92 573.24 353.38 570.09 342.84 566.38 332.31 564.16 315.48 573.16 307.12 588.21 302.41 603.92 296.96 612.29 293.67 621.01 289.98 630.12 285.87 639.63 281.32 649.57 276.31 659.92 270.86 670.69 264.98 681.84 258.67 699.26 248.48 705.17 244.96" stroke-dasharray="5 8" transform="rotate(20.200000000000003, 711, 400)" opacity="0.59"></path><path d="M700.94 253.29Q713.45 259.58 726.65 265.05 741.58 269.61 757.81 273.95 766.77 276.14 776.24 278.43 786.21 280.89 796.69 283.58 807.64 286.55 819.04 289.84 830.83 293.51 842.98 297.58 850.54 307.31 858.15 317.04 865.16 326.77 871 336.5 875.18 346.23 877.37 355.96 877.37 365.69 875.19 375.43 871 385.16 865.16 394.89 858.15 404.62 850.55 414.35 842.98 424.08 836.08 433.81 830.41 443.54 826.44 453.27 816.86 459.17 807.83 465.63 799.36 472.64 791.4 480.16 783.94 488.14 776.92 496.54 770.3 505.28 764.01 514.3 758 523.51 752.19 532.83 746.51 542.18 740.89 551.46 735.26 560.58 729.55 569.46 723.7 578.02 717.65 586.18 706.04 583.44 694.46 580.11 682.99 576.18 671.67 571.63 660.55 566.45 649.69 560.66 639.11 554.28 628.85 547.34 618.92 539.89 609.34 531.98 600.1 523.68 591.21 515.07 582.65 506.21 574.39 497.19 566.42 488.1 558.69 479.01 560.67 468.94 563.51 458.86 566.97 448.78 570.76 438.7 574.57 428.62 578.08 418.54 581.01 408.47 583.1 398.39 584.2 388.31 584.2 378.23 583.1 368.15 581.01 358.07 578.08 347.99 574.57 337.91 579.83 316.75 594.39 309.3 609.02 303.57 624.41 296.82 632.66 292.77 641.26 288.32 650.24 283.44 659.62 278.16 669.38 272.48 679.54 266.42 695.51 256.66 700.94 253.29" stroke-dasharray="8 2" transform="rotate(24.24, 711, 400)" opacity="0.69"></path><path d="M697.25 261.61Q709.92 267.56 723.42 272.75 738.71 277.05 755.26 281.11 764.31 283.13 773.8 285.22 783.73 287.43 794.09 289.82 804.83 292.44 815.93 295.33 827.35 298.53 839.02 302.08 846.2 311.33 853.22 320.59 859.55 329.84 864.72 339.1 868.34 348.35 870.14 357.61 869.98 366.86 867.88 376.12 864 385.37 858.62 394.63 852.15 403.88 845.07 413.13 837.91 422.39 831.21 431.64 825.45 440.9 821.09 450.15 811.59 456.16 802.58 462.66 794.06 469.62 786.02 477.02 778.44 484.8 771.3 492.92 764.55 501.32 758.15 509.94 752.06 518.7 746.22 527.53 740.57 536.36 735.05 545.11 729.61 553.7 724.19 562.07 710.42 572.7 691.2 572.11 680.44 568.44 669.89 564.21 659.59 559.42 649.56 554.08 639.83 548.21 630.42 541.82 621.33 534.96 612.57 527.67 604.12 520.01 595.98 512.02 588.14 503.77 580.56 495.34 573.21 486.78 566.08 478.18 568.35 468.57 571.34 458.95 574.82 449.33 578.55 439.72 582.23 430.1 585.59 420.49 588.39 410.87 590.4 401.25 591.5 391.64 591.58 382.02 590.64 372.4 588.76 362.79 586.07 353.17 582.78 343.55 587.48 323.29 600.96 316.01 614.34 310.3 628.32 303.6 635.75 299.63 643.48 295.28 651.55 290.55 659.96 285.44 668.74 279.97 677.88 274.16 692.32 264.82 697.25 261.61" stroke-dasharray="3 3" transform="rotate(28.28, 711, 400)" opacity="0.72"></path><path d="M694.29 269.93Q707.22 275.54 721.04 280.45 736.62 284.52 753.36 288.32 762.41 290.18 771.84 292.08 781.64 294.07 791.78 296.19 802.23 298.49 812.96 301.02 823.91 303.8 835.05 306.87 841.78 315.65 848.18 324.43 853.83 333.21 858.35 341.99 861.43 350.78 862.88 359.56 862.59 368.34 860.58 377.12 856.99 385.9 852.06 394.68 846.11 403.46 839.56 412.24 832.83 421.03 826.38 429.81 820.64 438.59 816 447.37 806.65 453.42 797.72 459.9 789.22 466.76 781.16 473.99 773.51 481.53 766.27 489.34 759.41 497.37 752.9 505.56 746.71 513.86 740.79 522.19 735.11 530.51 729.62 538.73 724.27 546.81 719 554.67 706 564.66 688.06 564.11 678.11 560.68 668.41 556.76 658.97 552.35 649.81 547.44 640.94 542.05 632.38 536.2 624.12 529.92 616.16 523.23 608.48 516.18 601.07 508.82 593.91 501.2 586.97 493.36 580.24 485.37 573.66 477.3 576.17 468.15 579.26 459 582.74 449.85 586.37 440.7 589.9 431.55 593.11 422.4 595.77 413.25 597.71 404.1 598.79 394.95 598.95 385.8 598.17 376.65 596.5 367.5 594.06 358.35 591.02 349.21 595.29 329.8 607.8 322.66 620.05 316.97 632.72 310.34 646.46 302.04 661.02 292.7 668.84 287.45 676.98 281.89 689.88 272.99 694.29 269.93" stroke-dasharray="11 11" transform="rotate(32.32, 711, 400)" opacity="0.94"></path><path d="M692.22 278.26Q705.28 283.65 719.54 288.17 735.12 292.05 752.05 295.57 770.29 299 789.7 302.68 810.05 306.9 831.04 311.94 842.99 328.56 851.88 345.18 855.6 361.8 853.28 378.43 845.46 395.05 833.99 411.67 821.58 428.29 811.15 444.91 793.23 457.34 776.79 471.06 761.84 485.79 748.3 501.18 736.01 516.83 724.74 532.33 714.19 547.26 704.07 561.21 685.24 556.09 667.35 549.29 650.51 540.74 634.79 530.49 620.15 518.65 606.49 505.47 593.65 491.24 581.45 476.32 587.28 458.96 594.22 441.6 600.64 424.25 605.01 406.9 606.31 389.54 604.23 372.19 599.25 354.83 592.57 337.48 603.8 333.75 614.88 329.24 626.06 323.71 637.61 317.03 649.79 309.11 662.83 299.95 676.93 289.62 692.22 278.26 692.22 278.26 692.22 278.26" stroke-dasharray="1 8" transform="rotate(36.36, 711, 400)" opacity="0.32"></path><path d="M691.14 286.58Q704.46 291.63 718.9 295.89 734.5 299.55 751.26 302.84 769.07 305.99 787.77 309.28 807.15 312.96 826.93 317.29 837.67 332.97 845.33 348.66 848.3 364.34 845.98 380.02 838.84 395.7 828.37 411.38 816.79 427.07 806.5 442.75 789.08 454.96 772.89 468.21 758 482.25 744.38 496.77 731.94 511.44 720.53 525.91 709.95 539.84 699.96 552.89 682.92 548.08 666.83 541.8 651.75 534 637.68 524.67 624.55 513.94 612.24 501.95 600.59 488.94 589.42 475.2 595.38 458.8 602.1 442.4 608.17 426.01 612.31 409.61 613.66 393.21 611.93 376.81 607.49 360.41 601.27 344.01 611.84 340.26 622.17 335.72 632.46 330.22 642.95 323.65 653.85 315.96 665.4 307.17 684.46 291.96 691.14 286.58" stroke-dasharray="4 2" transform="rotate(40.400000000000006, 711, 400)" opacity="0.40"></path><path d="M691.12 294.9Q704.59 299.61 719.06 303.61 734.51 307.06 750.9 310.13 768.09 313.04 785.93 315.98 804.21 319.2 822.7 322.89 832.18 337.64 838.67 352.38 840.98 367.12 838.68 381.87 832.19 396.61 822.71 411.36 811.99 426.1 802.01 440.85 785.21 452.73 769.43 465.43 754.73 478.72 741.14 492.34 728.62 506.02 717.09 519.47 706.42 532.41 696.44 544.57 681.24 540.07 666.95 534.3 653.59 527.19 641.09 518.77 629.37 509.08 618.32 498.25 607.78 486.46 597.58 473.92 603.58 458.48 610.02 443.05 615.71 427.61 619.61 412.18 621 396.75 619.61 381.31 615.71 365.88 610.01 350.45 619.97 346.66 629.62 342.1 639.13 336.64 648.68 330.21 658.47 322.78 668.69 314.37 685.32 299.97 691.12 294.9" stroke-dasharray="3 3" transform="rotate(44.44, 711, 400)" opacity="0.97"></path><path d="M692.15 303.22Q705.63 307.6 719.94 311.34 735.05 314.58 750.86 317.45 767.26 320.13 784.09 322.78 801.17 325.59 818.3 328.74 826.53 342.55 831.93 356.35 833.64 370.16 831.38 383.97 825.5 397.77 816.97 411.58 807.16 425.38 797.64 439.19 781.59 450.64 766.35 462.7 751.99 475.19 738.56 487.88 726.07 500.57 714.48 513 703.72 524.97 693.68 536.25 680.33 532.06 667.79 526.77 656.05 520.34 645.02 512.76 634.62 504.07 624.73 494.37 615.21 483.77 605.92 472.43 611.84 457.97 617.95 443.52 623.26 429.06 626.91 414.6 628.32 400.15 627.26 385.69 623.9 371.23 618.78 356.78 628.16 352.94 637.2 348.37 646.02 342.98 654.76 336.71 663.58 329.56 672.65 321.55 687.13 307.98 692.15 303.22" stroke-dasharray="1 3" transform="rotate(48.48, 711, 400)" opacity="0.89"></path><path d="M694.18 311.55Q707.48 315.6 721.44 319.09 736 322.12 751.06 324.8 766.5 327.27 782.2 329.66 797.99 332.13 813.71 334.81 820.71 347.67 825.1 360.54 826.28 373.4 824.08 386.26 818.8 399.13 811.19 411.99 802.29 424.85 793.36 437.72 778.18 448.63 763.6 459.98 749.73 471.63 736.61 483.38 724.28 495.06 712.74 506.5 701.94 517.51 691.85 527.92 680.27 524.03 669.38 519.21 659.15 513.42 649.48 506.65 640.29 498.91 631.46 490.28 622.87 480.84 614.42 470.69 620.18 457.22 625.91 443.76 630.82 430.29 634.22 416.83 635.64 403.36 634.88 389.9 632.05 376.43 627.54 362.97 636.38 359.09 644.86 354.53 653.07 349.22 661.11 343.15 669.11 336.31 677.2 328.72 689.85 316 694.18 311.55" stroke-dasharray="11 6" transform="rotate(52.52, 711, 400)" opacity="0.23"></path><path d="M697.11 319.87Q710.02 323.59 723.41 326.83 737.22 329.65 751.35 332.15 765.71 334.43 780.16 336.6 794.6 338.77 808.9 341.07 814.71 352.99 818.18 364.91 818.9 376.83 816.77 388.75 812.06 400.67 805.32 412.59 797.36 424.51 789.11 436.43 774.9 446.7 761.13 457.29 747.88 468.05 735.23 478.84 723.21 489.54 711.84 499.98 701.12 510.05 691.03 519.61 681.11 516.02 671.75 511.65 662.88 506.46 654.44 500.45 646.33 493.62 638.47 486.01 630.74 477.68 623.06 468.7 628.56 456.23 633.88 443.77 638.37 431.3 641.52 418.84 642.93 406.37 642.46 393.9 642.37 373.25 652.55 360.54 660.21 355.36 667.64 349.51 674.95 343 682.22 335.86 693.34 324 697.11 319.87" stroke-dasharray="1 4" transform="rotate(56.56, 711, 400)" opacity="0.71"></path><path d="M700.77 328.19Q713.07 331.59 725.7 334.57 738.58 337.19 751.64 339.51 764.79 341.62 777.93 343.59 790.98 345.52 803.83 347.5 808.53 358.47 811.17 369.44 811.5 380.41 809.47 391.38 805.3 402.35 799.4 413.32 792.36 424.29 784.88 435.26 771.71 444.82 758.86 454.58 746.38 464.43 734.34 474.26 722.79 483.97 711.75 493.44 701.25 502.58 691.28 511.29 682.86 508 674.86 504.07 667.22 499.46 659.87 494.16 652.73 488.18 645.73 481.54 638.79 474.27 631.83 466.42 637 454.96 641.86 443.5 645.94 432.05 648.82 420.59 650.22 409.13 649.99 397.67 650.46 378.54 660.21 366.4 667.37 361.38 674.27 355.79 680.99 349.65 687.59 342.97 697.46 332 700.77 328.19" stroke-dasharray="2 9" transform="rotate(60.599999999999994, 711, 400)" opacity="0.47"></path><path d="M704.98 336.52Q716.47 339.6 728.14 342.32 739.94 344.73 751.81 346.88 763.66 348.82 775.45 350.62 787.08 352.35 798.5 354.06 802.17 364.08 804.08 374.09 804.08 384.11 802.17 394.13 798.51 404.14 793.4 414.15 787.26 424.17 780.6 434.18 768.57 442.97 756.73 451.85 745.15 460.77 733.87 469.63 722.94 478.35 712.4 486.87 702.27 495.09 692.57 502.96 678.8 496.19 665.72 487.78 653.22 476.6 640.71 463.83 645.46 453.39 649.85 442.96 653.5 432.52 656.12 422.08 657.49 411.64 657.49 401.2 658.46 383.61 667.79 372.11 680.8 361.78 693.16 350.07 702.04 340 704.98 336.52" stroke-dasharray="8 5" transform="rotate(64.64, 711, 400)" opacity="0.96"></path><path d="M709.5 344.84Q719.99 347.6 730.56 350.07 741.16 352.27 751.75 354.25 762.26 356.04 772.65 357.68 789.25 364.51 796.9 378.84 796.64 387.89 794.87 396.94 791.69 405.99 787.32 415.05 782.06 424.1 776.26 433.15 765.41 441.09 754.68 449.08 744.1 457.04 733.71 464.94 723.57 472.7 713.69 480.27 696.5 489.77 683.13 488.85 671.95 481.09 660.89 471.99 654.64 459.08 657.84 442.09 661.07 432.68 663.42 423.27 664.74 413.86 664.93 404.45 666.36 388.44 675.24 377.67 687.34 367.96 698.78 357.15 706.85 347.99 709.5 344.84" stroke-dasharray="5 9" transform="rotate(68.68, 711, 400)" opacity="0.35"></path><path d="M714.1 353.16Q732.8 357.82 751.35 361.61 769.5 364.75 786.98 367.48 789.65 383.64 787.57 399.8 781.17 415.97 771.81 432.13 752.63 446.25 733.77 460.19 715.48 473.65 697.96 486.32 688.09 481.22 678.41 474.77 668.68 466.91 658.67 457.67 665.84 440.91 670.73 424.16 672.32 407.41 670.28 390.65 682.5 383.05 693.8 374.21 709.2 358.68 714.1 353.16" stroke-dasharray="2 8" transform="rotate(72.72, 711, 400)" opacity="0.14"></path><path d="M718.54 361.48Q734.68 365.56 750.55 368.96 765.96 371.81 780.77 374.26 782.31 388.47 780.26 402.67 774.95 416.88 767.22 431.08 750.51 443.34 733.92 455.39 717.62 467 701.78 478 693.44 473.57 685.08 468.14 676.56 461.64 667.7 454.08 673.82 439.41 678.03 424.74 679.65 410.06 678.43 395.39 689.53 388.26 699.88 380.18 714.04 366.35 718.54 361.48" stroke-dasharray="10 9" transform="rotate(76.76, 711, 400)" opacity="0.54"></path><path d="M722.58 369.81Q736.07 373.31 749.25 376.3 762.01 378.85 774.25 381.05 774.91 393.27 772.96 405.49 768.64 417.72 762.47 429.94 748.27 440.34 734.06 450.51 719.97 460.33 706.09 469.67 699.04 465.91 691.86 461.42 684.46 456.17 676.74 450.13 681.8 437.55 685.33 424.98 686.92 412.4 686.39 399.83 696.28 393.3 705.6 386.08 718.47 374.02 722.58 369.81" stroke-dasharray="10 8" transform="rotate(80.80000000000001, 711, 400)" opacity="0.80"></path><path d="M726.01 378.13Q736.85 381.06 747.4 383.62 762.52 391.94 765.66 408.26 762.26 418.48 757.51 428.71 745.84 437.24 734.09 445.57 722.34 453.63 710.66 461.35 698.52 454.38 685.74 445.86 689.75 435.38 692.63 424.9 694.13 414.42 694.13 403.94 702.71 398.15 710.89 391.9 722.33 381.67 726.01 378.13" stroke-dasharray="4 10" transform="rotate(84.84, 711, 400)" opacity="0.98"></path><path d="M728.63 386.44Q744.97 390.91 760.32 394.47 758.36 410.9 752.34 427.33 733.89 440.55 715.24 453.03 705.31 447.78 694.67 441.25 699.93 424.48 701.65 407.73 722.15 392.04 728.63 386.44" stroke-dasharray="11 4" transform="rotate(88.88, 711, 400)" opacity="0.36"></path><path d="M730.32 394.77Q741.92 398.18 752.91 401.04 751.05 413.41 746.93 425.77 733.38 435.46 719.61 444.7 711.79 440.86 703.5 436.31 707.23 423.76 708.92 411.2 725.12 399.03 730.32 394.77" stroke-dasharray="10 2" transform="rotate(92.92, 711, 400)" opacity="0.51"></path><path d="M730.99 403.09Q726.62 409.99 730.99 403.09" stroke-dasharray="8 8" transform="rotate(96.96, 711, 400)" opacity="0.94"></path></g></svg>